<svg width="24" height="24" viewBox="0 0 24 24" fill="none" xmlns="http://www.w3.org/2000/svg">
    <g transform="scale(1.2) translate(-1.5, -1)">
        <!-- Back-most image layer (darker) -->
        <path d="M8 20C7.44772 20 7 19.5523 7 19V9C7 8.44772 7.44772 8 8 8H20C20.5523 8 21 8.44772 21 9V19C21 19.5523 20.5523 20 20 20H8Z" fill="#4338CA"/>

        <!-- Middle image layer (main brand color) -->
        <path d="M5 17C4.44772 17 4 16.5523 4 16V6C4 5.44772 4.44772 5 5 5H17C17.5523 5 18 5.44772 18 6V16C18 16.5523 17.5523 17 17 17H5Z" fill="#6366F1"/>

        <!-- Front-most image layer (lighter, with content) -->
        <path d="M2 14H15C15.5523 14 16 13.5523 16 13V3C16 2.44772 15.5523 2 15 2H3C2.44772 2 2 2.44772 2 3V14Z" fill="#A5B4FC"/>
        <circle cx="6" cy="6" r="1.5" fill="white"/>
        <path d="M2 14L5.5 10.5L8.5 12.5L11 9L16 14H2Z" fill="white"/>
    </g>
</svg>
